<?xml version="1.0" encoding="utf-8"?>
<!-- Generator: Adobe Illustrator 21.0.2, SVG Export Plug-In . SVG Version: 6.00 Build 0)  -->
<svg version="1.1" id="Layer_1" xmlns="http://www.w3.org/2000/svg" xmlns:xlink="http://www.w3.org/1999/xlink" x="0px" y="0px"
	 viewBox="0 0 342 167" style="enable-background:new 0 0 342 167;" xml:space="preserve">
<style type="text/css">
	.st0{fill:#FF441D;}
</style>
<g>
	<path class="st0" d="M202.3,104.1c4.4-29.5,9-59.9,5.6-89.2c-0.1-0.5-0.4-1-0.7-1.3C206.9,7.3,188.4,4,170.1,4
		c-21,0-35.7,4-35.7,9.7c0,0.1,0,0.1,0,0.2c-0.2,0.3-0.3,0.7-0.4,1.1c-3.7,29.3,0.6,60.1,4.8,89.8c2.3,16.5,4.7,33.5,5.7,50.1
		c0,1.3,0.3,2.3,0.9,2.9c0.2-1.3,0.6-2.2,1.5-2.5c0.2-0.1,0.5-0.1,0.8-0.1c-1,0.6-1.5,1.3-1.5,2c0,3.2,11,5.8,24.6,5.8
		c13.4,0,24.3-2.5,24.6-5.7c0,0,0,0.1,0,0.1c0.4-0.6,0.6-1.4,0.6-2.4C197.2,138.1,199.8,120.8,202.3,104.1z M170.1,5.5
		c21.3,0,35.7,4.2,35.7,8.2s-14.3,8.2-35.7,8.2c-21.4,0-34.3-4.2-34.3-8.2C135.9,9.7,148.7,5.5,170.1,5.5z M170.9,158.9
		c6.9-1.5,17.8,1.7,18.9-7.2c1.8-14.9,3-31,4.9-44.8c0.8-5.9,1.6-11.9,2.4-17.8c-6.2,1.4-15.7,2.4-26.4,2.4
		c-18.7,0-33.8-2.8-33.8-6.3c0-0.2,0.1-0.4,0.1-0.5c1.5,3.2,16,5.7,33.7,5.7c10.8,0,20.4-0.9,26.6-2.4c0.3-2.5,0.6-5,0.9-7.5
		c-3.1-0.8-7.1-1.4-11.7-1.9c0.1,0.5,0.1,1.1,0.1,1.8c2.2,0,7.8-0.4,8,3.2c0.3,4.8-12.7,4.1-15.7,4.6c-6.3,1-12.7,0.6-18.9-0.3
		c-1.7-0.3-11.4-0.6-15.2-1.7c-0.8-0.2-1.3-0.5-1.4-0.7c-1.2-2.1,10.7-6.1,13.7-7c-10.1,0.8-17.5,2.6-19.5,4.6
		c-2.8-22.4-4.6-45.1-2-66.9c3.6,4.4,16.8,7.3,34.8,7.3c16.3,0,32.8-2.6,36.4-7.6c2.4,22,0.4,44.7-2.7,67.2c-0.5-0.5-1.3-1-2.3-1.4
		c-0.2,1.8-0.5,3.5-0.7,5.3c1.9-0.7,3.1-1.4,3.4-2.3c0.1,0.2,0.1,0.4,0.1,0.5c0,1-1.4,2-3.7,2.9c-0.9,6.4-1.8,12.8-2.8,19.2
		c-2.2,14.4-4.2,28.7-5.4,43.2C191.6,161.1,179,160,170.9,158.9z"/>
	<path class="st0" d="M162.2,48.3c0,0.2,0.2,0.4,0.4,0.4c0.2,0,0.4-0.2,0.4-0.4v-1.1c3,0,5.9,0,8.7,0c2.8,0,5.5-0.1,8.2-0.1l0,0v1.3
		c0,0.2,0.2,0.4,0.4,0.4c0.2,0,0.4-0.2,0.4-0.4V45c0-0.2-0.2-0.4-0.4-0.4c-0.2,0-0.4,0.2-0.4,0.4v1.3l0,0h0
		c-2.7,0.1-5.4,0.1-8.2,0.1c-2.8,0-5.8,0-8.7,0V45c0-0.2-0.2-0.4-0.4-0.4c-0.2,0-0.4,0.2-0.4,0.4V48.3z"/>
	<path class="st0" d="M166.1,44.1c0.3,0.3,0.7,0.4,1.2,0.4c0.3,0,0.5-0.1,0.8-0.2c0.1-0.1,0.3-0.2,0.4-0.3c0.1-0.1,0.2-0.3,0.3-0.4
		c0.1-0.2,0.2-0.4,0.2-0.6c0.1-0.2,0.1-0.5,0.1-0.8c0-0.3,0-0.6-0.1-0.8c-0.1-0.5-0.3-0.8-0.6-1c-0.3-0.3-0.7-0.4-1.2-0.4
		c-0.3,0-0.5,0.1-0.8,0.2c-0.1,0.1-0.3,0.2-0.4,0.3c-0.1,0.1-0.2,0.3-0.3,0.4c-0.1,0.2-0.2,0.4-0.2,0.6c-0.1,0.2-0.1,0.5-0.1,0.8
		c0,0.3,0,0.6,0.1,0.8C165.7,43.5,165.8,43.8,166.1,44.1z M166.5,40.9c0.1-0.1,0.2-0.2,0.3-0.3c0.1-0.1,0.3-0.1,0.4-0.1
		c0.2,0,0.3,0,0.4,0.1c0.4,0.2,0.7,0.8,0.7,1.7c0,0.6-0.1,1.1-0.3,1.4c-0.1,0.1-0.2,0.2-0.3,0.3c-0.1,0.1-0.3,0.1-0.4,0.1
		c-0.2,0-0.3,0-0.4-0.1c-0.4-0.2-0.7-0.8-0.7-1.7C166.2,41.6,166.3,41.1,166.5,40.9z"/>
	<path class="st0" d="M170.3,44.6c0,0.2,0,0.3-0.1,0.5c0,0.1-0.1,0.1-0.1,0.2c0,0-0.1,0.1-0.1,0.1c0,0,0,0,0,0.1
		c0.1,0.1,0.1,0.1,0.2,0.1c0.1,0,0.1-0.1,0.2-0.2c0.3-0.3,0.5-0.7,0.5-1.2c0-0.4-0.2-0.6-0.5-0.6c-0.1,0-0.3,0-0.3,0.2
		c0,0-0.1,0.1-0.1,0.2c0,0.1,0,0.1,0,0.2c0,0.1,0,0.1,0,0.2C170.2,44.2,170.3,44.4,170.3,44.6z"/>
	<path class="st0" d="M172.3,44.3c0.3,0.2,0.6,0.2,1,0.2c0.5,0,1-0.1,1.3-0.4c0.3-0.3,0.5-0.7,0.5-1.1c0-0.4-0.1-0.7-0.4-1
		c-0.1-0.1-0.3-0.2-0.5-0.3c-0.2-0.1-0.4-0.1-0.7-0.1c-0.3,0-0.6,0-0.8,0.1l0.1-1.3l0.3,0.1c0.1,0,0.2,0,0.4,0.1c0.1,0,0.3,0,0.4,0
		c0.1,0,0.3,0,0.5,0c0.2,0,0.3,0,0.4-0.1c0.1-0.1,0.1-0.2,0.1-0.3c0-0.1,0-0.2-0.1-0.3c-0.1,0-0.3,0-0.4,0l-0.4,0
		c-0.1,0-0.2,0-0.3,0c-0.1,0-0.2,0-0.4,0c-0.2,0-0.4,0-0.6,0c-0.1,0-0.2,0-0.3,0.1c-0.1,0-0.1,0.1-0.1,0.2l-0.2,1.8
		c0,0.1,0,0.1,0.1,0.2c0,0,0.1,0.1,0.1,0.1l0.1-0.1c0.3-0.1,0.6-0.2,0.9-0.2c0.3,0,0.5,0.1,0.7,0.3c0.2,0.2,0.3,0.4,0.3,0.7
		c0,0.3-0.1,0.5-0.3,0.7c-0.1,0.1-0.2,0.1-0.3,0.2c-0.1,0-0.3,0.1-0.4,0.1c-0.2,0-0.3,0-0.4-0.1c-0.3-0.1-0.5-0.4-0.5-0.8
		c0,0-0.1,0-0.1,0c-0.1,0-0.2,0-0.2,0.1c-0.1,0.1-0.2,0.2-0.2,0.5C171.9,43.9,172.1,44.1,172.3,44.3z"/>
	<path class="st0" d="M176.1,39.8c0,0,0.1,0,0.1,0c0.1,0,0.2,0,0.2,0.1c0,0,0,0.1,0,0.3v3.6c0,0.2-0.1,0.3-0.3,0.3c0,0-0.1,0-0.1,0
		c0,0,0,0.1,0,0.2c0,0.1,0.1,0.2,0.4,0.2h0.9c0.1,0,0.1,0,0.2,0c0,0,0-0.1,0-0.2c0-0.1,0-0.1,0-0.1c0,0,0,0-0.1,0c0,0-0.1,0-0.1,0
		c0,0-0.1,0-0.1,0c-0.1,0-0.2-0.1-0.2-0.3v-3.9c0-0.1,0-0.2,0-0.2c0-0.2-0.2-0.4-0.4-0.4c-0.2,0-0.4,0.1-0.6,0.2
		c-0.1,0.1-0.2,0.2-0.1,0.2C176,39.8,176,39.8,176.1,39.8C176.1,39.8,176.1,39.8,176.1,39.8z"/>
	<path class="st0" d="M164.3,77.9c1.7,0.3,3.4,0.9,5.1,1.8c3.4,1.8,0.7,2.1,4.2,0c0.9-0.5,1.9-1.2,2.9-1.9c-1.9-0.1-3.9-0.1-5.9-0.1
		C168.4,77.8,166.3,77.9,164.3,77.9z"/>
</g>
</svg>
