<?xml version="1.0" encoding="utf-8"?>
<!-- Generator: Adobe Illustrator 21.0.2, SVG Export Plug-In . SVG Version: 6.00 Build 0)  -->
<svg version="1.1" id="Layer_1" xmlns="http://www.w3.org/2000/svg" xmlns:xlink="http://www.w3.org/1999/xlink" x="0px" y="0px"
	 viewBox="0 0 342 167" style="enable-background:new 0 0 342 167;" xml:space="preserve">
<style type="text/css">
	.st0{fill:#FF441D;}
</style>
<g>
	<path class="st0" d="M155.3,52.9c-7.5,41.9-9.3,64-4.6,106.3c0.4,3.4,3.5,6.2,6.9,6.3c5.1,0.1,8.1,0.3,13.2,0.4
		c3.3,0.1,6.6-2.5,7.3-5.8c7.5-41.9,7.1-64.1,2.4-106.4c-0.3-2.3-2.3-4.3-4.6-5.4c6.5-5.7,18.6-27,17.3-38.5c-0.3-2.3-5-6.7-9.7-6.8
		c-3.4-0.1-26.3-0.9-29.7-1c-2.2-0.1-7.2,4.2-7.6,6.4c-2.2,14.1,7.8,33.8,14.1,39.4C157.8,48.9,155.7,50.7,155.3,52.9z M170.8,162.9
		l-13.2-0.4c-1.8-0.1-3.7-1.8-3.9-3.7c-2.1-19.3-2.9-34.3-2.4-48.6c0.1-3.2,0.3-6.3,0.5-9.5c0,1.1,0,2.2,0,3.3
		c0,16.1,1.4,33,4.6,54.7c0.1,0.4,0.8,1,1.1,1l14.8,2.7C171.8,162.8,171.3,162.9,170.8,162.9z M148.2,8.8c0-0.1,0.5-0.9,1.8-2.2
		c1.7-1.5,3.2-2.3,3.6-2.3c3.4,0.1,26.3,0.9,29.7,1c3.8,0.1,7.3,3.8,7.6,4.9c1.2,10.4-10,30.4-16.2,36.2c-1.1,1.1-1.6,1.2-1.6,1.2
		l-4.9-0.2l-5.1-0.2C159.4,46.6,145.8,24.5,148.2,8.8z M170.6,52c-3.6-1.9-8.6,4.1-10.5,6.5c-0.3,0.4-0.6,0.8-0.9,1.3
		c-2,3.1-2.8,6.9-3.8,10.4c1.3-5.3,0.6-11.5,3.5-16.2C161.3,49.8,166.6,49.9,170.6,52z"/>
	<path class="st0" d="M165.8,30.5c0.2-0.4,0.5-0.8,0.8-1.1c0.7-0.7,1.6-1,2.6-1c1.5,0.1,2.7,1,3.2,2.3l0.5,1.4l7.5,0.3l0.6-1.3
		c3.1-6.1,4.5-11.3,4.5-11.5c0.4-1.6,0.8-3.7,0.8-4.5c0.1-1.2-0.3-2.3-1.1-3.2c-1.1-1.3-3-2-5.2-2.1l-21.7-0.7
		c-1.5-0.1-3.1,0.6-4.3,1.7c-1,1-1.6,2.2-1.8,3.3l0,1.5c-0.2,6.1,1.2,8.5,3.3,12.2c0.4,0.8,0.9,1.6,1.5,2.6l0.6,1.1l7.5,0.3
		L165.8,30.5z M163.7,29.5l-4.7-0.1c-3-5.6-4.7-7-4.5-13.7c0-1.3,0-1.3,0-1.3c0.1-1.5,2-3.1,3.7-3l21.7,0.7c2.4,0.1,4.3,1.2,4.2,2.9
		c0,0.6-0.4,2.4-0.8,4c0,0-1.3,5.1-4.4,11l-4.5-0.1c-0.8-2.1-2.9-3.7-5.3-3.8C166.8,26,164.7,27.4,163.7,29.5z"/>
</g>
</svg>
