<?xml version="1.0" encoding="utf-8"?>
<!-- Generator: Adobe Illustrator 21.0.2, SVG Export Plug-In . SVG Version: 6.00 Build 0)  -->
<svg version="1.1" id="Layer_1" xmlns="http://www.w3.org/2000/svg" xmlns:xlink="http://www.w3.org/1999/xlink" x="0px" y="0px"
	 viewBox="0 0 342 167" style="enable-background:new 0 0 342 167;" xml:space="preserve">
<style type="text/css">
	.st0{fill:#FF441D;}
</style>
<path class="st0" d="M165.9,91.6c0.4,0.9,0,2-1,2.4c-0.9,0.4-2,0-2.4-1"/>
<path class="st0" d="M293.8,107.9c-3.1-7.6-8.4-12.9-15.9-16.1l-4.2-1.8l-0.2-0.5l5.7-13.5c0.5-1.2,0.5-2.5,0-3.8c0,0,0,0,0-0.1
	c-1,0.5-2,1-3.2,1.3c-1.1,0.3-2.3,0.5-3.4,0.5c-6.3,0-10.4-4.7-12.2-10c-3.4,3.8-8.8,4.5-13.1,1.4c-1,1.3-2.7,2.1-4.7,2.1
	c-2.8,0-5.6-1.6-7.1-3.9c-0.7-1.1-1-2.4-1-3.7c-0.4,0.1-0.9,0.1-1.4,0.1c-5.1,0-11.8-3.3-12.1-3.5c-2.3-1.2-9.7-5.4-11.6-12.4
	c-1.2-0.2-2.2-0.6-3.2-1.1c-0.6,0.5-1.1,1-1.4,1.8l-33,78.4c-0.4,0.9-0.7,1.9-0.9,2.8c-0.2-0.9-0.5-1.9-0.9-2.8l-33-78.4
	c-0.5-1.2-1.4-2.1-2.7-2.6s-2.5-0.5-3.8,0l-2.7,1.1c-1.7,2-4.1,3.4-7,3.8c0.2,1.2,0,2.5-0.6,3.7c-1.4,2.6-4.6,4.4-7.8,4.4
	c-2.3,0-4.3-0.9-5.8-2.5c-3.4,4.8-12.9,7.9-13.4,8.1c-2.2,0.7-5.6,1.6-9.4,1.6c-0.4,0-0.7,0-1.1-0.1l-17.4,7.3
	c-1.2,0.5-2.1,1.4-2.6,2.7c-0.5,1.3-0.5,2.5,0,3.8l5.7,13.5l0,0.5l-4.2,1.8c-7.5,3.2-12.8,8.5-15.9,16.1c-3.1,7.6-3,15.1,0.1,22.7
	c3.2,7.5,8.5,12.8,16.1,15.9c7.6,3.1,15.1,3,22.7-0.1l4.6-1.9l4.2,9.9c1.8,4.4,5,7.4,9.4,9.3c4.4,1.8,8.8,1.8,13.2,0l42.4-17.8
	c4.4-1.8,7.4-5,9.3-9.4c0.4-0.9,0.6-1.9,0.9-2.8c0.2,0.9,0.5,1.9,0.9,2.8c1.8,4.4,4.9,7.6,9.3,9.4l42.4,17.8c4.4,1.8,8.8,1.8,13.2,0
	s7.6-4.9,9.4-9.3l4.2-9.9l4.6,1.9c7.5,3.2,15.1,3.2,22.7,0.1c7.6-3.1,12.9-8.4,16.1-15.9C296.8,123,296.9,115.5,293.8,107.9z
	 M81.4,132.7c-3.8,1.6-7.6,1.6-11.3,0.1c-3.8-1.5-6.5-4.2-8-8c-1.6-3.8-1.6-7.6-0.1-11.3c1.5-3.8,4.2-6.4,8-8l4.5-1.9L86,130.8
	L81.4,132.7z M112.6,142.9c-2.6,1.1-5.6-0.1-6.6-2.7L82.5,84.6C81.4,82,82.6,79,85.2,78c2.6-1.1,5.6,0.1,6.7,2.7l23.4,55.6
	C116.4,138.8,115.1,141.8,112.6,142.9z M132.4,134.5c-2.6,1.1-5.6-0.1-6.6-2.7l-23.4-55.6c-1.1-2.6,0.1-5.6,2.7-6.6
	c2.6-1.1,5.6,0.1,6.7,2.7l23.4,55.6C136.2,130.5,135,133.5,132.4,134.5z M152.2,126.2c-2.6,1.1-5.6-0.1-6.6-2.7l-23.4-55.6
	c-1.1-2.6,0.1-5.6,2.7-6.7c2.6-1.1,5.6,0.1,6.6,2.7l23.4,55.6C156,122.1,154.8,125.1,152.2,126.2z M189.9,126.2
	c-2.6-1.1-3.8-4.1-2.7-6.7l23.4-55.6c1.1-2.6,4.1-3.8,6.6-2.7c2.6,1.1,3.8,4.1,2.7,6.7l-23.4,55.6
	C195.4,126.1,192.4,127.3,189.9,126.2z M216.3,131.8c-1.1,2.6-4.1,3.8-6.6,2.7c-2.6-1.1-3.8-4.1-2.7-6.6l23.4-55.6
	c1.1-2.6,4.1-3.8,6.7-2.7c2.6,1.1,3.8,4.1,2.7,6.6L216.3,131.8z M236.2,140.2c-1.1,2.6-4.1,3.8-6.6,2.7c-2.6-1.1-3.8-4.1-2.7-6.7
	l23.4-55.6c1.1-2.6,4.1-3.8,6.6-2.7c2.6,1.1,3.8,4.1,2.7,6.6L236.2,140.2z M280,124.8c-1.6,3.8-4.3,6.4-8.1,8
	c-3.8,1.5-7.5,1.5-11.3-0.1l-4.6-1.9l11.5-27.3l4.6,1.9c3.8,1.6,6.5,4.3,8,8C281.6,117.2,281.6,121,280,124.8z"/>
<path class="st0" d="M104.7,48.7c-0.3-0.9,0.2-1.8,1.1-2c0.9-0.3,1.8,0.2,2,1.1c1,3.3,3.2,4.1,4.8,4.1c2,0,4.1-1.2,4.9-2.7
	c0.5-0.9,0.4-1.8-0.2-2.7c-0.3-0.5-0.4-1.2-0.1-1.7s0.9-0.8,1.5-0.9c4.4,0,16.4-5.9,17-10.6c0.9-7.4-2.3-12.3-10.3-9.3
	c0.9-9.2-4.1-16-13.7-14.8c-0.4,1.1-1.3,1.3-1.7,2.1c0.3-5.6-7.4-10.1-12.2-9.7C93.3,2,88.4,5,87.4,10.1c-0.2,0.9-1,1.5-1.9,1.3
	s-1.5-1-1.3-1.9V9.4c0-0.1-0.3-0.2-0.8-0.2c-3,0-8.5,2.5-9.2,3c-6.1,4.7-10.9,9.9-11.6,18c-11.4-4.5-6.1,21.9-4.3,22.1
	c-4.9-0.7-6.1,18,5.9,14.1c3.5-1.1,6.4-4.3,9.7-6c5.8-3,12.4-0.9,18.5-2.9C98,55.8,105.6,51.6,104.7,48.7z"/>
<path class="st0" d="M211.1,41c0.7,0.1,1.3,0.6,1.4,1.3c1.1,6.2,8,10.1,10.1,11.2c2.5,1.3,7.4,3.1,10.6,3.1c1.3,0,2.2-0.3,2.5-0.9
	l0,0c0.4-0.8,1.4-1.1,2.2-0.7c0.8,0.4,1.1,1.4,0.7,2.2c-0.9,1.7-1,3.3-0.2,4.5c0.8,1.4,2.6,2.3,4.2,2.3c1,0,2.2-0.3,2.5-1.8
	c0.1-0.6,0.6-1.1,1.1-1.3c0.6-0.2,1.2,0,1.6,0.4c1.6,1.6,3.5,2.6,5.3,2.6c2.6,0,5-1.8,6.4-5c0.3-0.6,0.9-1,1.5-1c0.1,0,0.2,0,0.2,0
	c0.7,0.1,1.3,0.7,1.4,1.4c0.6,5.3,4,11.1,9.9,11.1c0.8,0,1.7-0.1,2.6-0.4c2.3-0.6,4-1.7,4.7-3.2c0.6-1.1,0.6-2.4,0.1-3.8
	c-0.2-0.5-0.1-1,0.2-1.5c0.3-0.4,0.8-0.7,1.3-0.7c1.5,0,3.2-0.4,3.5-2c0.3-1.8-1.3-4.6-4-5.7c-0.5-0.2-0.8-0.6-1-1.1
	c-0.1-0.5,0-1,0.4-1.4c2.2-2.6,1.6-5.6,0.6-7.6c-2.1-4.6-7.3-8.3-11.6-8.3c-1.5,0-2.8,0.4-3.9,1.3c-0.6,0.5-1.4,0.5-2,0
	c-0.6-0.4-0.8-1.2-0.5-1.9c2.4-5.8,1.9-9.3-1.9-12.5c-3.3-2.8-8.5-3.4-11.7-1.1l0,0c-0.7,0.5-1.8,0.3-2.3-0.4
	c-0.5-0.7-0.3-1.8,0.4-2.3l0,0c-0.3-1.2-6.4-4-7.9-4.3c-0.5-0.1-1-0.1-1.5-0.1c-4.3,0-7.6,2.2-9,5.9c-0.3,0.7-0.4,1.5-0.5,2.5
	c-0.1,0.6-0.5,1.2-1.1,1.4c-0.6,0.2-1.3,0.1-1.7-0.4c-0.9-0.9-2-1.6-3.2-2c-4.7-1.8-10.2,0.8-12,5.4l-0.2,0.5
	c-0.8,2-1.1,2.9-2.3,4.5c-0.6,0.8-1.2,1.3-1.8,1.7c-0.8,0.5-1.2,0.9-1.5,1.8c-0.3,1.2-0.2,2.2,0.4,3.1
	C206.2,39.6,208.4,40.7,211.1,41z"/>
</svg>
