<?xml version="1.0" encoding="utf-8"?>
<!-- Generator: Adobe Illustrator 21.0.2, SVG Export Plug-In . SVG Version: 6.00 Build 0)  -->
<svg version="1.1" id="Layer_1" xmlns="http://www.w3.org/2000/svg" xmlns:xlink="http://www.w3.org/1999/xlink" x="0px" y="0px"
	 viewBox="0 0 342 167" style="enable-background:new 0 0 342 167;" xml:space="preserve">
<style type="text/css">
	.st0{fill:#BC6C25;}
</style>
<path class="st0" d="M132.4,44.1c-0.4,0-0.9,0-1.4,0.1c-8.7,0.7-12.3,12.4-10.8,19.7c0.7,3.2,3.5,4.7,5.3,7.2
	c1.2,1.6,13.6,18.6,7.2,47.7c-0.7,3-1.7,6-3.1,8.8c1,0.2,2,0.2,3,0.2c4.6,0,9.1-1.4,13.6-1.4c1.3,0,2.6,0.1,3.9,0.4
	c8.2,2,87.9,13.2,157.8,13.2c11.2,0,22.2-0.3,32.6-1v-32l-0.6-5.1c-13.1,0.9-27,1.2-41.1,1.2c-64.1,0-130.7-7.5-134.9-9.4
	c-4-1.8-9.3-2.4-12.1-5.9c-2-2.4-7.5-5.7-9.1-8.4c-4.3-7.5-5.4-12.6-7.2-22.1c-0.6-3.1,0.8-5.2,1.6-8.1
	C138.4,45.4,135.9,44.1,132.4,44.1z M136.1,50.9c-0.3,1.4-0.9,3-1.2,3.1c-1.2,0.7-4.2-1.2-5-2.9c-2.3-5.1,4.2-3.2,6.3-2.1
	C136.4,49.2,136.3,50,136.1,50.9z"/>
<path class="st0" d="M97,62.8l-0.3-0.5l0.7-7.7c0.1-1.4-0.3-2.7-1.2-3.9c-0.8,0.9-1.8,1.7-3,2.5c-2.4,1.5-4.9,2.3-7.5,2.3
	c-4.6,0-9.2-2.6-12.5-6.9c-1.8,4-5.4,6.4-9.7,6.4c-1.2,0-2.5-0.2-3.7-0.6c-0.2,0.6-0.6,1.2-1.1,1.8c-1.4,1.6-3.6,2.5-6.1,2.5
	c-2.8,0-5.4-1.2-7-3.1c-0.5-0.6-1.1-1.5-1.4-2.6c-2.1,0.9-4.9,1.4-8.7,1.4c-2.7,0-5.3-0.3-6.8-0.5c-2.9-0.5-12.1-2.4-16.6-9.2
	c-0.6,0.1-1.1,0.1-1.6,0.1c-0.8,0-1.5-0.1-2.2-0.2c-0.4,0.7-0.6,1.4-0.7,2.2l-8.3,94.8c-0.1,1.1-0.1,2.1,0,3.2
	c0.2,3,1.1,5.8,2.7,8.4c0.5,0.9,1.1,1.7,1.8,2.5c3.4,4.1,7.8,6.4,13.1,6.9l51.2,4.5c5.3,0.5,9.9-1,14.1-4.5
	c4.1-3.4,6.4-7.8,6.9-13.1l0.7-6.7l5.5,0.5c9.1,0.8,17.2-1.7,24.2-7.6c7-5.9,11.2-18.7,12-27.8c0.8-9.1-1.1-25.7-6.9-32.7
	c-5.9-7-13.4-10.9-22.5-11.7L97,62.8z M31.5,66.2l-5.9,67.2c-0.3,3.1-3,5.4-6.2,5.2c-3.1-0.3-5.4-3-5.2-6.2l5.9-67.2
	c0.3-3.1,3-5.4,6.1-5.2C29.5,60.4,31.8,63.1,31.5,66.2z M55.5,68.3l-5.9,67.2c-0.3,3.1-3,5.4-6.2,5.2c-3.1-0.3-5.4-3-5.2-6.1
	l5.9-67.2c0.3-3.1,3-5.4,6.2-5.2C53.5,62.4,55.8,65.2,55.5,68.3z M79.4,70.4l-5.9,67.2c-0.3,3.1-3,5.4-6.1,5.2
	c-3.1-0.3-5.4-3-5.2-6.2l5.9-67.2c0.3-3.1,3-5.4,6.1-5.2C77.4,64.5,79.7,67.3,79.4,70.4z M100.6,79.7c0.5,0,1.1,0.1,1.6,0.2
	c0.5-1.4,1.3-2.5,2.4-3.3c1.3-0.9,2.9-1.4,5-1.4c1.3,0,2.6,0.2,3.8,0.3c1.1,0.1,2.1,0.3,3,0.3l0.1,0c0.3,0,0.6,0,0.9,0
	c0.4,0,0.8,0,1.2,0c2.6,0,5.8,0.6,7.7,5.6c1.2,2.9,1.3,5.3,0.3,7.1c-1.3,2.5-4.1,3.2-6.5,3.7c0.2,0,0.4,0,0.7,0c0.5,0,1.1,0,1.7,0
	c1.7,0,6.4,0,8.1,5.8c2,7.1-2,9.4-5.8,10.7l-0.2,0.1c-1,0.3-2.2,0.7-3.5,1.1c2.1,0.5,4.3,1.9,5.1,5.7c0.6,2.6,0.4,4.5-0.5,6
	c-1.2,1.8-3.2,2.3-4.6,2.6l-0.2,0c-1.7,0.3-4,0.7-6.4,0.7c-2.5,0-4.6-0.5-6.4-1.4c-3.3,2.5-7.1,3.6-11.4,3.2l-5.5-0.5l3.9-46.9
	L100.6,79.7z"/>
<path class="st0" d="M92.1,51.5c-2.1,1.4-4.3,2-6.4,2c-5.6,0-10.6-4.4-13.2-10c-0.6,6.1-4.4,9.5-9,9.5c-1.7,0-3.5-0.5-5.3-1.4
	c0.4,3.3-2.4,5.1-5.5,5.1c-3.7,0-7.8-2.6-6.8-8.3c-0.6,3.3-5.7,4.1-10.4,4.1c-2.7,0-5.1-0.3-6.5-0.5c-5.9-0.9-13-3.8-15.9-9.4
	c-0.9,0.2-1.8,0.2-2.7,0.2c-4.1,0-8-1.8-8.2-6.3C2.3,33.7,4.1,33,4.8,31c0.7-2,0.7-2.8,0.8-5.7c0.3-6.5,5.7-11.6,12.2-11.6
	c0.2,0,0.4,0,0.6,0c1.7,0.1,3.4,0.5,4.8,1.3c-0.2-1.1-0.4-2.2-0.4-3.3c0.3-6.2,4.9-10.5,10.7-11.5c0.2,0,0.5,0,0.9,0
	c3.4,0,13.6,1.1,10.8,4.8c0,0,0,0,0,0s0,0,0,0c2.3-3,5.9-4.4,9.6-4.4c1.8,0,3.7,0.4,5.4,1.1c6.7,2.8,8,7.8,7.5,14.5
	c1.9-2.8,5-4,8.4-4c8.7,0,19.3,7.8,15.7,16.2c6.6,0.5,12,8.6,3.6,11.6C98.6,44.1,96.5,48.6,92.1,51.5z"/>
<path class="st0" d="M124.5,82.1c-1.5-3.8-3.6-4.3-5.8-4.3c-0.7,0-1.4,0-2.1,0.1c0,0-0.1,0-0.1,0c-2.1,0-4.6-0.6-6.8-0.6
	c-1.5,0-2.8,0.2-3.9,1c-2.4,1.8-3.3,6.6-0.3,10.4c1.9,2.3,3.9,3.2,5.9,3.3c0.1,0,0.1,0,0.2,0c0.2,0,0.4,0,0.5,0
	c2.3-0.1,4.5-0.9,6.4-1.4C122.3,89.6,127.3,89.2,124.5,82.1z M120.5,88c-1.6,1.3-4.7,2.2-4.8-2.3c-0.1-3.7,1.9-4.6,3.7-5l0-0.4
	C120.2,82.6,120.2,85.4,120.5,88z"/>
<path class="st0" d="M106,119c2.1,3,5.4,3.7,8.5,3.7c2.3,0,4.5-0.4,6.2-0.7c3.1-0.6,4.6-1.9,3.6-6.2c-1-4.4-3.9-4.3-6.6-4.7
	c-0.6-0.1-1.2-0.2-1.9-0.3c-1,0.1-2,0.2-3,0.2c-2.2,0-4.1-0.4-5.8-1.1C104.3,111,103.6,115.8,106,119z M118.1,118.5
	c-0.1-2.9,2.1-3.7,3.5-3.9c0.1,2,0.1,4.1-0.3,6.1c-0.1,0-0.2,0-0.3,0C119.9,120.8,118.1,120.5,118.1,118.5z"/>
<path class="st0" d="M128.7,98.5c-1.1-3.8-3.5-4.4-6.1-4.4c-0.9,0-1.8,0.1-2.7,0.1c-0.2,0-0.4,0-0.6,0c-2.6,0-5.1-0.3-7.5-0.3
	c-1.7,0-3.4,0.1-5.1,0.6c-4.3,1.2-5.3,7.7-1.8,11.5c2.1,2.3,5,3.1,8.1,3.1c4.1,0,8.4-1.4,11.4-2.4
	C128.2,105.4,130.1,103.5,128.7,98.5z M124,104.2c-0.1,0-0.2,0.1-0.3,0.1c-1.4,0.2-3.5,0.1-3.9-2.4c-0.5-3.7,2.1-5,3.7-5.5
	C123.9,98.9,124.1,101.5,124,104.2z"/>
</svg>
