<?xml version="1.0" encoding="utf-8"?>
<!-- Generator: Adobe Illustrator 21.0.2, SVG Export Plug-In . SVG Version: 6.00 Build 0)  -->
<svg version="1.1" id="Layer_1" xmlns="http://www.w3.org/2000/svg" xmlns:xlink="http://www.w3.org/1999/xlink" x="0px" y="0px"
	 viewBox="0 0 750 222" style="enable-background:new 0 0 750 222;" xml:space="preserve">
<style type="text/css">
	.st0{fill:#FF441D;}
</style>
<path class="st0" d="M203.6,90.6c0.9,2.8,2.2,4.9,1.6,8.1c-1.8,9.4-2.9,14.6-7.2,22.1c-1.6,2.7-7.1,6-9.1,8.4
	c-2.9,3.5-8.2,4.1-12.1,5.9c-4.1,1.8-70.8,9.4-134.9,9.4c-14.1,0-28-0.4-41.1-1.2l-0.6,5.1v32c10.4,0.7,21.4,1,32.6,1
	c69.9,0,149.6-11.2,157.8-13.2c1.3-0.3,2.6-0.4,3.9-0.4c4.5,0,9,1.4,13.6,1.4c1,0,2-0.1,3-0.2c-1.3-2.7-2.4-5.8-3.1-8.8
	c-6.4-29.1,6.1-46.1,7.2-47.7c1.9-2.5,4.7-4,5.3-7.2c1.5-7.3-2.1-19-10.8-19.7c-0.5,0-0.9-0.1-1.4-0.1
	C204.8,85.4,202.3,86.6,203.6,90.6z M204.6,90.3c2.1-1.1,8.6-3,6.3,2.1c-0.8,1.8-3.8,3.6-5,2.9c-0.3-0.2-0.9-1.8-1.2-3.1
	C204.5,91.2,204.4,90.4,204.6,90.3z"/>
<path class="st0" d="M238.7,104.5c-9.1,0.8-16.6,4.7-22.5,11.7c-5.9,7-7.7,23.6-6.9,32.7c0.8,9.1,5,21.9,12,27.8
	c7,5.9,15.1,8.4,24.2,7.6l5.5-0.5l0.7,6.7c0.5,5.3,2.7,9.6,6.9,13.1c4.1,3.5,8.8,5,14.1,4.5l51.2-4.5c5.3-0.5,9.6-2.7,13.1-6.9
	c0.7-0.8,1.3-1.7,1.8-2.5c1.6-2.6,2.5-5.4,2.7-8.4c0.1-1,0.1-2.1,0-3.2L333.1,88c-0.1-0.8-0.3-1.5-0.7-2.2c-0.7,0.1-1.5,0.2-2.2,0.2
	c-0.5,0-1.1,0-1.6-0.1c-4.5,6.8-13.7,8.8-16.6,9.2c-1.5,0.2-4.1,0.5-6.8,0.5c-3.7,0-6.6-0.5-8.7-1.4c-0.4,1.1-0.9,1.9-1.4,2.6
	c-1.6,1.9-4.3,3.1-7,3.1c-2.5,0-4.7-0.9-6.1-2.5c-0.5-0.5-0.8-1.1-1.1-1.8c-1.2,0.4-2.5,0.6-3.7,0.6c-4.3,0-7.8-2.5-9.7-6.4
	c-3.3,4.3-7.8,6.9-12.5,6.9c-2.6,0-5.1-0.8-7.5-2.3c-1.2-0.7-2.2-1.6-3-2.5c-0.9,1.2-1.3,2.5-1.2,3.9l0.7,7.7l-0.3,0.5L238.7,104.5z
	 M314.4,101.3c3.1-0.3,5.9,2,6.1,5.2l5.9,67.2c0.3,3.1-2,5.9-5.2,6.2c-3.1,0.3-5.9-2-6.2-5.2l-5.9-67.2
	C309,104.4,311.3,101.6,314.4,101.3z M290.4,103.4c3.1-0.3,5.9,2,6.2,5.2l5.9,67.2c0.3,3.1-2,5.9-5.2,6.1c-3.1,0.3-5.9-2-6.2-5.2
	l-5.9-67.2C285,106.4,287.3,103.7,290.4,103.4z M266.5,105.5c3.1-0.3,5.9,2,6.1,5.2l5.9,67.2c0.3,3.1-2,5.9-5.2,6.2
	c-3.1,0.3-5.9-2-6.1-5.2l-5.9-67.2C261,108.5,263.4,105.8,266.5,105.5z M245.6,120.5l3.9,46.9l-5.5,0.5c-4.3,0.4-8-0.7-11.4-3.2
	c-1.8,0.9-3.9,1.4-6.4,1.4c-2.4,0-4.7-0.4-6.4-0.7l-0.2,0c-1.4-0.3-3.5-0.8-4.6-2.6c-1-1.5-1.1-3.4-0.5-6c0.9-3.8,3-5.1,5.1-5.7
	c-1.3-0.4-2.4-0.7-3.5-1.1l-0.2-0.1c-3.8-1.2-7.9-3.5-5.8-10.7c1.7-5.8,6.3-5.8,8.1-5.8c0.6,0,1.1,0,1.7,0c0.2,0,0.4,0,0.7,0
	c-2.3-0.5-5.1-1.2-6.5-3.7c-1-1.8-0.9-4.1,0.3-7.1c1.9-4.9,5.1-5.6,7.7-5.6c0.4,0,0.8,0,1.2,0c0.3,0,0.6,0,0.9,0l0.1,0
	c0.9,0,1.9-0.1,3-0.3c1.2-0.1,2.5-0.3,3.8-0.3c2.1,0,3.8,0.5,5,1.4c1.1,0.8,1.9,1.9,2.4,3.3c0.5-0.1,1.1-0.2,1.6-0.2L245.6,120.5z"
	/>
<path class="st0" d="M248.7,92.7c2.1,1.4,4.3,2,6.4,2c5.6,0,10.6-4.4,13.2-10c0.6,6.1,4.4,9.5,9,9.5c1.7,0,3.5-0.5,5.3-1.4
	c-0.4,3.3,2.4,5.1,5.5,5.1c3.7,0,7.8-2.6,6.8-8.3c0.6,3.3,5.7,4.1,10.4,4.1c2.7,0,5.1-0.3,6.5-0.5c5.9-0.9,13-3.8,15.9-9.4
	c0.9,0.2,1.8,0.2,2.7,0.2c4.1,0,8-1.8,8.2-6.3c0.1-2.7-1.7-3.4-2.4-5.4c-0.7-2-0.7-2.8-0.8-5.7c-0.3-6.5-5.7-11.6-12.2-11.6
	c-0.2,0-0.4,0-0.6,0c-1.7,0.1-3.4,0.5-4.8,1.3c0.2-1.1,0.4-2.2,0.4-3.3c-0.3-6.2-4.9-10.5-10.7-11.5c-0.2,0-0.5,0-0.9,0
	c-3.4,0-13.6,1.1-10.8,4.8c0,0,0,0,0,0s0,0,0,0c-2.3-3-5.9-4.4-9.6-4.4c-1.8,0-3.7,0.4-5.4,1.1c-6.7,2.8-8,7.8-7.5,14.5
	c-1.9-2.8-5-4-8.4-4c-8.7,0-19.3,7.8-15.7,16.2c-6.6,0.5-12,8.6-3.6,11.6C242.2,85.4,244.2,89.9,248.7,92.7z"/>
<path class="st0" d="M222.2,131.8c1.9,0.5,4.1,1.3,6.4,1.4c0.2,0,0.4,0,0.5,0c0.1,0,0.1,0,0.2,0c2-0.1,4.1-0.9,5.9-3.3
	c3-3.7,2.1-8.6-0.3-10.4c-1.1-0.8-2.4-1-3.9-1c-2.2,0-4.8,0.6-6.8,0.6c0,0-0.1,0-0.1,0c-0.7,0-1.4-0.1-2.1-0.1
	c-2.2,0-4.3,0.5-5.8,4.3C213.5,130.5,218.5,130.8,222.2,131.8z M221.3,121.5l0,0.4c1.8,0.4,3.8,1.3,3.7,5c-0.1,4.5-3.2,3.6-4.8,2.3
	C220.6,126.6,220.5,123.9,221.3,121.5z"/>
<path class="st0" d="M233.7,151.3c-1.7,0.7-3.6,1.1-5.8,1.1c-1,0-2-0.1-3-0.2c-0.6,0.1-1.2,0.3-1.9,0.3c-2.7,0.4-5.6,0.2-6.6,4.7
	c-1,4.2,0.5,5.6,3.6,6.2c1.7,0.3,3.9,0.7,6.2,0.7c3.1,0,6.4-0.8,8.5-3.7C237.1,157,236.5,152.3,233.7,151.3z M219.8,162
	c-0.1,0-0.2,0-0.3,0c-0.3-2.1-0.4-4.1-0.3-6.1c1.3,0.2,3.6,1,3.5,3.9C222.6,161.7,220.9,162,219.8,162z"/>
<path class="st0" d="M216.6,148c3,1,7.3,2.4,11.4,2.4c3,0,5.9-0.8,8.1-3.1c3.5-3.8,2.5-10.3-1.8-11.5c-1.8-0.5-3.4-0.6-5.1-0.6
	c-2.5,0-4.9,0.3-7.5,0.3c-0.2,0-0.4,0-0.6,0c-0.9,0-1.8-0.1-2.7-0.1c-2.6,0-5,0.5-6.1,4.4C210.7,144.7,212.5,146.7,216.6,148z
	 M217.3,137.5c1.6,0.5,4.3,1.8,3.7,5.5c-0.4,2.5-2.5,2.7-3.9,2.4c-0.1,0-0.2,0-0.3-0.1C216.7,142.7,216.9,140.1,217.3,137.5z"/>
</svg>
