<?xml version="1.0" encoding="utf-8"?>
<!-- Generator: Adobe Illustrator 21.0.2, SVG Export Plug-In . SVG Version: 6.00 Build 0)  -->
<svg version="1.1" id="Layer_1" xmlns="http://www.w3.org/2000/svg" xmlns:xlink="http://www.w3.org/1999/xlink" x="0px" y="0px"
	 viewBox="0 0 36 124" style="enable-background:new 0 0 36 124;" xml:space="preserve">
<style type="text/css">
	.st0{fill:#FFCB47;}
</style>
<g>
	<path class="st0" d="M8.4,27.9c-0.4,8,0.6,13.6-2.1,18.2C3.9,49,0,51.6,0,55.7C0,75.8,0,96,0,116.1c0,1.7,2.4,4.4,5.9,5.6
		c3.5,1.2,8,1.8,12.1,1.8c4.1,0,8.5-0.5,12.1-1.8c3.5-1.2,5.9-3.9,5.9-5.6c0-20.1,0-40.3,0-60.4c0-4.1-3.9-6.7-6.3-9.6
		c-2.7-4.7-1.7-10.2-2.1-18.2c-0.4-6.8-1.1-11.5-1.7-16.3c-0.1-1.1-0.2-1.3,0.2-1.6c0.4-0.3,0.6-1.5,0.6-2.7c0,0,0,0,0,0l0,0
		c0.3-0.1,0.5-0.3,0.7-0.7c0.1-0.3,0.2-0.6,0.2-0.9c0-0.7,0-1.4,0-2.1c0-0.6-0.3-1.1-0.7-1.3c-0.8-1.7-8.2-1.7-9.1-1.7
		c-1.4,0-8.3,0.1-8.8,1.8C8.7,2.6,8.5,3,8.5,3.6c0,0.7,0,1.4,0,2.1c0,0.3,0,0.5,0.1,0.8C8.7,6.8,9,7.1,9.3,7.2h0c0,0,0,0,0,0
		c0,1.2,0.2,2.4,0.6,2.8c0.4,0.3,0.3,0.5,0.2,1.6C9.6,16.4,8.8,21.1,8.4,27.9z M2.7,55c-0.8,1.4-1.4,5.5-1.2,7
		c-0.3-2.4-0.5-4.9,0.2-7.2c0.9-2.6,3.1-4.2,4.7-6.4C6.6,48.2,6.7,49,6.7,49c0,0.4-0.4,0.7-0.6,1c-0.4,0.7-0.8,1.3-1.3,1.9
		C4.1,52.9,3.3,53.9,2.7,55z M4.9,79.1c0-1.9,2.5-2.8,5.2-2.4c2.1,0.4,3.1,1.5,3.1,2.6c0,0.8-0.5,1.6-1.5,2c1.2,0.4,1.7,1.4,1.7,2.4
		c0,1.3-0.8,3.9-3.2,3.5c-0.6-0.1-1.4-0.5-1.4-1.3c0-0.2,0.1-0.5,0.2-0.7c0.4,0.4,0.6,0.6,1,0.7c1.1,0.2,1.4-1.2,1.4-2.2
		c0-1-0.3-1.8-1.4-1.9c-0.1,0-0.4-0.1-0.7-0.1c-0.4,1.7-0.8,3.3-1.2,4.9c-0.7-0.2-1.4-0.3-2.1-0.5c0.6-2.7,1.3-5.4,2-8.1
		c0.7,0.1,1.4,0.1,2.1,0.2c-0.2,1-0.5,1.9-0.7,2.9c0,0,0.1,0,0.1,0c1.2,0.2,2.1-0.8,2.1-1.9c0-0.8-0.5-1.5-1.9-1.8
		c-1.7-0.3-3.6,0.3-3.6,2.5c0,0.7,0.2,0.8,0.2,1C5.5,80.5,4.9,80,4.9,79.1z M5.9,89.1c7.9,2.2,16.3,2.2,24.2,0
		c-2,7.4-6.6,11.3-12.1,11.3C12.5,100.4,7.8,96.6,5.9,89.1z M17.1,86.5c1.1,0,1.8-0.5,2.4-1.2c0.1-1.6,1.1-4.6,4-5
		c1.3-0.2,1.6,0.4,1.6,1.1c0,1.6-1.6,3-3.4,3.3c0,0.2,0,0.4,0,0.6c0,0.9,0.4,1.1,1.1,1c1.2-0.1,1.9-0.8,2.6-1.7c0.3-1.5,0.7-3,1-4.5
		c0.7-0.1,1.4-0.3,2.1-0.4c-0.1,0.3-0.1,0.6-0.2,0.9c0.5-0.5,1.1-1.1,1.7-1.3c0.6-0.2,1,0.2,1,0.7c0,0.5-0.3,1.1-1,1.3
		c-0.8,0.2-0.4-0.8-0.8-0.7c-0.4,0.1-0.7,0.4-1.1,0.8c-0.4,1.8-0.8,3.6-1.2,5.4c-0.7,0.1-1.4,0.3-2.1,0.4c0.1-0.5,0.2-1,0.3-1.6
		c-0.8,1-1.9,1.9-3.3,2c-1.2,0.1-2-0.4-2.2-1.6c-0.8,1-1.9,1.8-3.4,1.7c-1.4,0-2.3-0.8-2.3-2.3c0-1.6,1-4.7,4-4.6
		c1.3,0,1.6,0.6,1.6,1.3c0,1.6-1.6,2.8-3.4,2.8c0,0.2,0,0.4,0,0.5C16,86.3,16.4,86.5,17.1,86.5z M25.8,28.1c0.1,2.2,0.2,4.1,0.2,6.1
		c0,5-0.1,8.9,2.2,12.9c0,0,1.7,1.9,2.4,2.7c1.9,1.9,2.9,3.9,2.9,5.9c0,13.4,0,26.8,0,40.3l0,20.1c0,3.4-9.9,4.6-12.4,3.9
		c2.6-0.6,8.1-1.3,10-3.1c1.9-1.8,1.4-3.3,1.4-5.8c-0.1-5.7,0.1-11.4,0.1-17.1c0-12.8,0-24,0-36.7c0-2.2-3.3-3.6-4.7-5.1
		c-5.5-6.1-4.2-13.8-4.2-19.1c0-1.9-0.2-7.6-0.3-8.4c-0.2-2.8-0.5-5.6-0.7-8.4c-0.1-0.8,0.1-2.2-0.3-2.9c-0.8-1.5-2.5-1.1-4.1-1.1
		c0.1-1,3.5-1.2,4.2-1.2c2.7,0,2,1.6,2.2,3.6c0.3,2.5,0.4,5.7,0.6,8.2C25.5,24.7,25.7,26.5,25.8,28.1z M17.8,1.3
		c5.4,0,8.1,0.8,8.3,1.2c-0.2,0.4-2.9,1.2-8.3,1.2c-5.3,0-7.8-0.8-8-1.2C10,2.1,12.5,1.3,17.8,1.3z M9.3,6.3c0-0.2-0.1-0.3-0.1-0.5
		c0-0.7,0-1.4,0-2.1c0-0.2,0.1-0.4,0.2-0.5c1.6,1.2,7.1,1.3,8.4,1.3c0.8,0,7.3,0,8.8-1.4c0.1,0.2,0.2,0.4,0.2,0.6c0,0.7,0,1.4,0,2.1
		c0,0.2,0,0.4-0.1,0.5c-0.2-0.4-0.6-0.7-1.1-0.6c-0.5,0.1-0.9,0.5-1.1,1.1c-0.2-0.4-0.6-0.7-1.1-0.6c-0.5,0.1-0.9,0.5-1.1,1
		c-0.2-0.5-0.6-0.7-1.1-0.7c-0.5,0.1-0.9,0.4-1.1,0.9C20,7,19.6,6.7,19.1,6.7c-0.5,0-0.9,0.4-1.1,0.8c-0.2-0.5-0.6-0.8-1.1-0.8
		c-0.5,0-0.9,0.3-1.1,0.8c-0.2-0.5-0.6-0.9-1.1-0.9c-0.5-0.1-0.9,0.2-1.1,0.7c-0.2-0.5-0.6-0.9-1.1-1c-0.5-0.1-0.9,0.2-1.1,0.6
		c-0.2-0.5-0.6-0.9-1.1-1.1C9.9,5.7,9.5,6,9.3,6.3z M18,66.2c5.5,0,10.1,1.7,12.1,8c-7.9,2.2-16.3,2.2-24.2,0
		C7.8,67.9,12.5,66.2,18,66.2z"/>
	<path class="st0" d="M24,81.5c0-0.3-0.1-0.5-0.4-0.5c-0.7,0.1-1.5,1.6-1.8,3C23,83.9,24,82.7,24,81.5z"/>
	<path class="st0" d="M18.3,81.9c0-0.3-0.1-0.6-0.4-0.6c-0.8,0-1.5,1.4-1.8,2.8C17.3,84.1,18.3,83.1,18.3,81.9z"/>
	<path class="st0" d="M18.2,74.1c1.2,0,2.2-1,2.2-2c0-1.1-2.2-4.6-2.2-4.6c0,0-2.2,3.5-2.2,4.6C16,73.2,17,74.1,18.2,74.1z"/>
</g>
</svg>
